<svg width="32" height="32" viewBox="0 0 24 24" fill="none" xmlns="http://www.w3.org/2000/svg">
  <defs>
    <linearGradient id="voteGradient" x1="0%" y1="0%" x2="100%" y2="100%">
      <stop offset="0%" style="stop-color:#3b82f6;stop-opacity:1" />
      <stop offset="100%" style="stop-color:#8b5cf6;stop-opacity:1" />
    </linearGradient>
  </defs>
  
  <!-- Vote 아이콘 (Lucide React의 Vote 아이콘과 동일한 패스) -->
  <path 
    d="m9 12 2 2 4-4M21 12c0 1.268-.63 2.39-1.593 3.068a3.745 3.745 0 0 1-1.043 3.296 3.745 3.745 0 0 1-3.296 1.043A3.745 3.745 0 0 1 12 21c-1.268 0-2.39-.63-3.068-1.593a3.745 3.745 0 0 1-3.296-1.043 3.745 3.745 0 0 1-1.043-3.296A3.745 3.745 0 0 1 3 12c0-1.268.63-2.39 1.593-3.068a3.745 3.745 0 0 1 1.043-3.296 3.745 3.745 0 0 1 3.296-1.043A3.745 3.745 0 0 1 12 3c1.268 0 2.39.63 3.068 1.593a3.745 3.745 0 0 1 3.296 1.043 3.745 3.745 0 0 1 1.043 3.296A3.745 3.745 0 0 1 21 12Z" 
    stroke="url(#voteGradient)" 
    stroke-width="2" 
    stroke-linecap="round" 
    stroke-linejoin="round"
    fill="none"
  />
</svg>
